<?xml version="1.0" encoding="UTF-8" standalone="no"?>
<!DOCTYPE svg PUBLIC "-//W3C//DTD SVG 20010904//EN"
              "http://www.w3.org/TR/2001/REC-SVG-20010904/DTD/svg10.dtd">

<svg xmlns="http://www.w3.org/2000/svg"
     width="14.8549in" height="5.16693in"
     viewBox="0 0 2139 744">
  <path id="letter"
        fill="none" stroke="black" stroke-width="1"
        d="M 1516.00,242.00
           C 1516.00,242.00 1516.00,608.00 1516.00,608.00
             1516.00,608.00 1472.00,608.00 1472.00,608.00
             1472.00,608.00 1472.00,242.00 1472.00,242.00
             1472.00,242.00 1516.00,242.00 1516.00,242.00 Z
           M 1370.00,263.00
           C 1370.00,263.00 1370.00,343.00 1370.00,343.00
             1370.00,343.00 1422.00,343.00 1422.00,343.00
             1422.00,343.00 1422.00,382.00 1422.00,382.00
             1422.00,382.00 1370.00,382.00 1370.00,382.00
             1370.00,382.00 1370.00,523.00 1370.00,523.00
             1370.00,533.17 1367.66,556.66 1375.21,563.61
             1380.33,568.31 1389.38,568.99 1396.00,569.00
             1396.00,569.00 1422.00,569.00 1422.00,569.00
             1422.00,569.00 1422.00,608.00 1422.00,608.00
             1422.00,608.00 1366.00,607.15 1366.00,607.15
             1356.91,606.06 1347.16,603.89 1340.00,597.79
             1328.87,588.31 1327.20,576.66 1325.83,563.00
             1325.83,563.00 1325.00,554.00 1325.00,554.00
             1325.00,554.00 1325.00,382.00 1325.00,382.00
             1325.00,382.00 1280.00,382.00 1280.00,382.00
             1280.00,382.00 1280.00,343.00 1280.00,343.00
             1280.00,343.00 1325.00,343.00 1325.00,343.00
             1325.00,343.00 1325.00,263.00 1325.00,263.00
             1325.00,263.00 1370.00,263.00 1370.00,263.00 Z
           M 518.65,576.00
           C 508.82,590.26 497.87,597.52 482.00,603.80
             467.96,609.35 453.97,611.02 439.00,611.00
             402.13,610.94 369.24,594.18 347.91,564.00
             337.51,549.27 330.92,530.58 327.40,513.00
             318.11,466.57 326.65,408.07 359.17,372.00
             378.39,350.68 409.29,337.04 438.00,337.00
             438.00,337.00 454.00,337.00 454.00,337.00
             466.38,337.15 484.30,342.30 495.00,348.46
             510.89,357.61 516.29,365.14 526.00,380.00
             526.00,380.00 526.00,343.00 526.00,343.00
             526.00,343.00 568.00,343.00 568.00,343.00
             568.00,343.00 568.00,503.00 568.00,503.00
             568.00,503.00 568.00,583.00 568.00,583.00
             568.00,583.00 567.00,602.00 567.00,602.00
             566.72,625.74 558.82,654.34 545.48,674.00
             526.75,701.61 489.37,714.95 457.00,715.00
             457.00,715.00 432.00,715.00 432.00,715.00
             432.00,715.00 415.00,713.08 415.00,713.08
             385.26,708.17 355.47,695.40 341.27,667.00
             336.64,657.75 334.83,647.23 334.00,637.00
             334.00,637.00 379.00,637.00 379.00,637.00
             379.64,650.73 388.59,660.94 400.00,667.79
             418.33,678.80 447.34,682.46 468.00,677.26
             474.22,675.69 480.43,673.31 486.00,670.13
             512.00,655.29 522.12,627.30 524.96,599.00
             524.96,599.00 524.96,590.00 524.96,590.00
             524.96,590.00 526.00,580.00 526.00,580.00
             526.06,574.67 526.46,569.15 525.00,564.00
             523.52,569.06 521.61,571.71 518.65,576.00 Z
           M 1584.46,392.00
           C 1586.46,386.88 1591.25,378.44 1594.49,374.00
             1613.39,348.12 1650.03,337.05 1681.00,337.00
             1681.00,337.00 1705.00,337.00 1705.00,337.00
             1705.00,337.00 1715.00,337.93 1715.00,337.93
             1736.09,339.88 1758.73,344.88 1773.83,361.04
             1785.95,374.02 1788.90,385.93 1790.09,403.00
             1790.09,403.00 1791.00,413.00 1791.00,413.00
             1791.00,413.00 1791.00,556.00 1791.00,556.00
             1791.04,558.90 1791.09,560.12 1791.62,563.00
             1791.95,564.83 1792.46,567.35 1793.31,568.98
             1798.37,578.76 1809.83,573.69 1818.00,573.00
             1818.00,573.00 1818.00,608.00 1818.00,608.00
             1818.00,608.00 1805.00,612.33 1805.00,612.33
             1784.61,616.78 1757.64,614.82 1750.92,591.00
             1749.22,584.97 1749.00,581.15 1749.00,575.00
             1739.01,584.99 1730.77,593.43 1718.00,600.02
             1712.36,602.93 1700.10,607.81 1694.00,609.34
             1651.79,619.91 1589.21,616.12 1572.09,568.00
             1568.23,557.15 1567.98,547.29 1568.00,536.00
             1568.01,528.62 1569.20,521.13 1571.16,514.00
             1574.03,503.51 1579.43,494.74 1587.01,487.00
             1603.81,469.86 1622.52,465.54 1645.00,460.58
             1645.00,460.58 1685.00,453.42 1685.00,453.42
             1698.74,451.48 1717.59,449.83 1730.00,443.63
             1737.87,439.69 1744.36,434.05 1745.93,425.00
             1746.68,419.97 1746.43,417.95 1745.93,413.00
             1743.39,383.04 1712.92,375.96 1688.00,376.00
             1663.30,376.04 1633.42,383.36 1625.44,410.00
             1623.81,415.44 1623.05,420.34 1623.00,426.00
             1623.00,426.00 1578.00,426.00 1578.00,426.00
             1578.89,414.98 1580.42,402.33 1584.46,392.00 Z
           M 1887.67,539.00
           C 1898.01,569.90 1931.91,575.04 1960.00,575.00
             1983.48,574.96 2017.79,566.98 2018.96,538.00
             2020.06,510.78 1989.24,501.42 1968.00,495.58
             1937.91,487.31 1918.14,486.83 1888.00,473.85
             1869.93,466.07 1853.91,452.44 1848.43,433.00
             1847.13,428.41 1846.06,420.78 1846.00,416.00
             1845.88,405.21 1847.06,393.97 1851.51,384.00
             1865.40,352.95 1905.74,337.05 1938.00,337.00
             1938.00,337.00 1958.00,337.00 1958.00,337.00
             1987.39,337.05 2023.43,347.23 2040.30,373.00
             2044.88,379.99 2047.91,387.02 2050.28,395.00
             2052.77,403.39 2053.99,412.27 2054.00,421.00
             2054.00,421.00 2010.00,421.00 2010.00,421.00
             2008.55,413.06 2008.12,408.16 2003.73,401.00
             1992.00,381.85 1967.11,375.76 1946.00,376.00
             1928.46,376.21 1902.27,381.87 1894.81,400.00
             1892.49,406.02 1892.53,410.94 1894.81,417.00
             1901.26,435.36 1927.92,442.60 1945.00,446.87
             1945.00,446.87 1967.00,452.00 1967.00,452.00
             2002.70,459.64 2052.12,469.41 2063.57,510.00
             2064.95,514.89 2065.94,520.92 2066.00,526.00
             2066.23,545.73 2064.16,561.89 2051.48,578.00
             2022.62,614.70 1958.60,619.12 1916.00,610.60
             1901.51,607.70 1887.23,602.99 1875.00,594.43
             1858.78,583.08 1848.34,567.04 1843.48,548.00
             1843.48,548.00 1840.00,524.00 1840.00,524.00
             1840.00,524.00 1885.00,524.00 1885.00,524.00
             1885.12,529.60 1885.90,533.69 1887.67,539.00 Z
           M 98.00,343.00
           C 98.00,343.00 106.30,344.60 106.30,344.60
             106.30,344.60 112.00,359.00 112.00,359.00
             112.00,359.00 124.00,395.00 124.00,395.00
             124.00,395.00 160.67,504.00 160.67,504.00
             160.67,504.00 181.00,563.00 181.00,563.00
             181.00,563.00 200.00,504.00 200.00,504.00
             200.00,504.00 221.67,437.00 221.67,437.00
             221.67,437.00 235.98,394.00 235.98,394.00
             235.98,394.00 247.33,359.00 247.33,359.00
             247.33,359.00 252.84,344.60 252.84,344.60
             252.84,344.60 261.00,343.00 261.00,343.00
             261.00,343.00 299.00,343.00 299.00,343.00
             298.00,349.37 293.63,359.48 291.34,366.00
             291.34,366.00 273.42,415.00 273.42,415.00
             273.42,415.00 224.81,548.00 224.81,548.00
             224.81,548.00 208.69,592.00 208.69,592.00
             207.64,594.96 204.40,605.44 202.30,607.01
             200.63,608.26 197.04,608.00 195.00,608.00
             195.00,608.00 161.00,608.00 161.00,608.00
             152.18,607.83 152.24,601.47 149.42,594.00
             149.42,594.00 132.00,547.00 132.00,547.00
             132.00,547.00 120.05,515.00 120.05,515.00
             120.05,515.00 78.95,404.00 78.95,404.00
             78.95,404.00 65.19,367.00 65.19,367.00
             62.71,360.46 58.01,349.46 57.00,343.00
             57.00,343.00 98.00,343.00 98.00,343.00 Z
           M 414.00,383.60
           C 378.57,401.57 370.58,441.88 371.00,478.00
             371.00,478.00 371.92,488.00 371.92,488.00
             374.66,522.27 387.80,558.54 424.00,569.28
             429.23,570.83 435.54,571.93 441.00,572.00
             455.94,572.17 468.72,570.80 482.00,563.13
             506.14,549.18 517.02,522.19 521.41,496.00
             521.41,496.00 523.82,469.00 523.82,469.00
             521.44,435.55 514.30,399.46 481.00,382.81
             476.14,380.38 469.37,378.34 464.00,377.43
             456.04,376.09 449.08,375.53 441.00,376.28
             430.55,377.82 423.70,378.69 414.00,383.60 Z
           M 1732.00,478.80
           C 1722.53,481.70 1705.14,484.39 1695.00,485.72
             1677.39,488.04 1651.28,490.60 1636.00,499.46
             1629.97,502.97 1624.11,507.99 1620.48,514.00
             1610.34,530.80 1613.71,554.69 1630.00,566.37
             1642.11,575.05 1658.76,575.16 1673.00,575.00
             1700.31,574.68 1730.00,560.75 1741.69,535.00
             1744.43,528.96 1745.92,522.63 1746.00,516.00
             1746.00,516.00 1746.00,473.00 1746.00,473.00
             1746.00,473.00 1732.00,478.80 1732.00,478.80 Z
           M 855.00,645.00
           C 855.00,645.00 855.00,672.00 855.00,672.00
             855.00,672.00 599.00,672.00 599.00,672.00
             599.00,672.00 599.00,645.00 599.00,645.00
             599.00,645.00 855.00,645.00 855.00,645.00 Z" />
</svg>
