<?xml version="1.0" encoding="UTF-8" standalone="no"?>
<!DOCTYPE svg PUBLIC "-//W3C//DTD SVG 20010904//EN"
              "http://www.w3.org/TR/2001/REC-SVG-20010904/DTD/svg10.dtd">

<svg xmlns="http://www.w3.org/2000/svg"
     width="14.8549in" height="5.16693in"
     viewBox="0 0 2139 744">
  <path id="Selection #1"
        fill="none" stroke="black" stroke-width="1"
        d="M 1047.16,91.01
           C 1052.14,81.66 1065.56,81.75 1070.56,91.01
             1074.22,97.79 1073.00,115.73 1073.00,124.00
             1080.42,124.67 1089.62,128.39 1096.00,132.21
             1119.26,146.13 1132.31,170.07 1132.00,197.00
             1131.86,209.05 1127.70,222.68 1121.55,233.00
             1118.59,237.96 1110.42,246.07 1110.60,251.00
             1110.60,251.00 1114.14,264.00 1114.14,264.00
             1114.14,264.00 1122.58,293.00 1122.58,293.00
             1122.58,293.00 1149.71,387.00 1149.71,387.00
             1149.71,387.00 1163.00,435.00 1163.00,435.00
             1163.00,435.00 1224.00,435.00 1224.00,435.00
             1230.77,435.08 1237.21,435.88 1241.28,442.02
             1247.00,450.65 1241.61,460.09 1232.00,462.18
             1226.23,463.44 1216.25,463.00 1210.00,463.00
             1210.00,463.00 1172.00,463.00 1172.00,463.00
             1172.00,463.00 1189.14,523.00 1189.14,523.00
             1189.14,523.00 1195.44,546.00 1195.44,546.00
             1195.44,546.00 1193.30,559.00 1193.30,559.00
             1193.30,559.00 1198.00,613.00 1198.00,613.00
             1198.00,613.00 1186.00,616.00 1186.00,616.00
             1186.00,616.00 1162.20,567.05 1162.20,567.05
             1162.20,567.05 1153.92,557.96 1153.92,557.96
             1153.92,557.96 1141.58,516.00 1141.58,516.00
             1141.58,516.00 1127.00,463.00 1127.00,463.00
             1127.00,463.00 1074.00,463.00 1074.00,463.00
             1074.00,467.51 1074.28,473.94 1071.86,477.89
             1068.31,483.72 1057.90,484.12 1053.72,478.78
             1050.67,474.87 1051.00,467.74 1051.00,463.00
             1051.00,463.00 990.00,463.00 990.00,463.00
             990.00,463.00 973.42,522.00 973.42,522.00
             973.42,522.00 962.70,557.98 962.70,557.98
             962.70,557.98 954.35,567.05 954.35,567.05
             954.35,567.05 942.74,591.00 942.74,591.00
             942.74,591.00 931.00,616.00 931.00,616.00
             931.00,616.00 918.00,613.00 918.00,613.00
             918.00,613.00 921.09,582.00 921.09,582.00
             921.09,582.00 923.20,557.00 923.20,557.00
             923.20,557.00 921.20,546.00 921.20,546.00
             921.20,546.00 929.29,517.00 929.29,517.00
             929.29,517.00 945.00,463.00 945.00,463.00
             945.00,463.00 909.00,463.00 909.00,463.00
             902.96,463.00 894.57,463.45 889.01,461.01
             879.26,456.71 879.07,444.64 887.04,438.43
             891.31,435.10 897.81,435.01 903.00,435.00
             903.00,435.00 944.00,435.00 944.00,435.00
             946.66,434.99 950.37,435.33 952.44,433.40
             954.42,431.56 955.91,424.79 956.71,422.00
             956.71,422.00 964.58,395.00 964.58,395.00
             964.58,395.00 995.29,289.00 995.29,289.00
             995.29,289.00 1003.71,260.00 1003.71,260.00
             1004.51,257.22 1006.85,250.57 1006.22,248.00
             1006.22,248.00 996.01,233.00 996.01,233.00
             989.90,222.68 986.02,211.04 986.00,199.00
             985.98,188.27 985.66,183.61 989.03,173.00
             996.37,149.91 1020.09,126.25 1045.00,124.00
             1045.00,116.44 1043.99,96.96 1047.16,91.01 Z
           M 1023.47,165.01
           C 1006.14,185.84 1010.24,218.75 1033.00,233.90
             1042.96,240.53 1050.50,241.13 1062.00,241.00
             1093.39,240.63 1112.10,207.13 1102.13,179.00
             1097.00,164.50 1086.61,156.78 1073.00,151.00
             1073.00,158.51 1073.98,170.62 1069.86,176.96
             1063.76,186.33 1051.44,185.31 1046.99,175.00
             1044.33,168.82 1045.00,157.88 1045.00,151.00
             1036.44,154.42 1029.56,157.69 1023.47,165.01 Z
           M 1104.72,388.00
           C 1104.72,388.00 1081.29,307.00 1081.29,307.00
             1081.29,307.00 1073.42,280.00 1073.42,280.00
             1072.71,277.50 1071.18,270.47 1069.28,268.99
             1067.23,267.41 1056.06,267.95 1053.00,268.00
             1045.94,268.14 1046.36,269.25 1043.58,279.00
             1043.58,279.00 1035.71,306.00 1035.71,306.00
             1035.71,306.00 1011.00,391.00 1011.00,391.00
             1011.00,391.00 999.00,435.00 999.00,435.00
             999.00,435.00 1051.00,435.00 1051.00,435.00
             1051.01,430.52 1050.98,424.90 1053.72,421.11
             1058.20,414.90 1068.02,415.40 1071.86,422.04
             1074.02,425.77 1073.99,430.83 1074.00,435.00
             1074.00,435.00 1118.00,435.00 1118.00,435.00
             1118.00,435.00 1104.72,388.00 1104.72,388.00 Z" />
</svg>
