<svg xmlns="http://www.w3.org/2000/svg"
     width="13.5424in" height="13.4382in"
     viewBox="0 0 1950 1935">
  <path id="Selection"
        fill="none" stroke="black" stroke-width="1"
        d="M 967.00,189.00
           C 967.00,189.00 984.21,107.00 984.21,107.00
             984.21,107.00 990.16,80.00 990.16,80.00
             990.88,77.47 992.83,71.40 996.62,73.17
             999.15,74.34 1000.25,79.51 1000.87,82.00
             1000.87,82.00 1006.60,110.00 1006.60,110.00
             1006.60,110.00 1021.80,185.00 1021.80,185.00
             1021.80,185.00 1029.00,223.00 1029.00,223.00
             1029.00,223.00 1045.00,223.91 1045.00,223.91
             1045.00,223.91 1093.00,228.72 1093.00,228.72
             1134.18,234.14 1174.25,243.31 1214.00,255.28
             1455.82,328.12 1648.68,525.03 1719.42,767.00
             1734.93,820.02 1749.00,892.95 1749.00,948.00
             1749.00,948.00 1792.00,956.58 1792.00,956.58
             1792.00,956.58 1859.00,970.79 1859.00,970.79
             1859.00,970.79 1881.00,975.40 1881.00,975.40
             1888.13,976.84 1893.16,977.00 1898.00,983.00
             1888.90,989.44 1872.17,991.17 1861.00,993.40
             1861.00,993.40 1788.00,1008.20 1788.00,1008.20
             1788.00,1008.20 1760.00,1013.80 1760.00,1013.80
             1757.13,1014.38 1751.74,1014.92 1750.02,1017.43
             1748.50,1019.65 1749.11,1026.08 1748.91,1029.00
             1748.91,1029.00 1746.72,1055.00 1746.72,1055.00
             1742.94,1086.78 1738.53,1117.70 1731.58,1149.00
             1713.35,1231.09 1676.60,1319.63 1630.66,1390.00
             1605.59,1428.39 1580.62,1460.97 1549.83,1495.00
             1549.83,1495.00 1538.04,1507.00 1538.04,1507.00
             1538.04,1507.00 1528.00,1518.00 1528.00,1518.00
             1528.00,1518.00 1517.00,1528.04 1517.00,1528.04
             1517.00,1528.04 1505.00,1539.83 1505.00,1539.83
             1411.33,1624.58 1297.34,1688.59 1174.00,1717.88
             1132.80,1727.67 1101.15,1733.09 1059.00,1737.17
             1059.00,1737.17 1036.00,1739.00 1036.00,1739.00
             1036.00,1739.00 1032.00,1739.00 1032.00,1739.00
             1028.96,1739.02 1024.82,1738.89 1022.31,1740.85
             1020.10,1742.58 1019.73,1745.44 1019.12,1748.00
             1019.12,1748.00 1015.58,1765.00 1015.58,1765.00
             1015.58,1765.00 998.20,1847.00 998.20,1847.00
             998.20,1847.00 992.12,1875.00 992.12,1875.00
             991.49,1877.33 989.97,1883.61 986.89,1883.66
             983.88,1883.72 982.12,1878.30 981.49,1876.00
             981.49,1876.00 976.20,1850.00 976.20,1850.00
             976.20,1850.00 961.20,1776.00 961.20,1776.00
             961.20,1776.00 954.00,1739.00 954.00,1739.00
             930.23,1739.00 898.73,1735.11 875.00,1731.42
             832.02,1724.75 792.26,1715.09 751.00,1701.33
             515.88,1622.96 332.09,1433.02 262.58,1195.00
             251.21,1156.07 242.66,1116.29 237.85,1076.00
             237.85,1076.00 233.91,1034.00 233.91,1034.00
             233.91,1034.00 233.00,1024.00 233.00,1024.00
             233.00,1024.00 233.00,1019.00 233.00,1019.00
             233.00,1016.16 233.33,1011.78 231.26,1009.58
             229.65,1007.87 226.23,1007.46 224.00,1007.00
             224.00,1007.00 207.00,1003.35 207.00,1003.35
             207.00,1003.35 123.00,985.58 123.00,985.58
             123.00,985.58 94.00,979.25 94.00,979.25
             91.71,978.61 85.39,976.87 85.34,973.90
             85.28,970.91 90.75,969.38 93.00,968.75
             93.00,968.75 119.00,963.20 119.00,963.20
             119.00,963.20 204.00,946.20 204.00,946.20
             204.00,946.20 225.00,941.88 225.00,941.88
             227.86,941.20 231.09,940.88 232.40,937.86
             232.99,936.50 233.18,931.86 233.42,930.00
             233.42,930.00 235.17,908.00 235.17,908.00
             235.17,908.00 244.42,842.00 244.42,842.00
             254.48,786.24 274.73,721.48 298.31,670.00
             333.25,593.71 378.83,524.46 436.09,463.00
             534.71,357.14 664.67,280.21 805.00,245.13
             850.87,233.66 912.95,223.00 960.00,223.00
             960.00,223.00 967.00,189.00 967.00,189.00 Z
           M 856.00,331.60
           C 776.31,347.54 685.27,384.87 619.00,431.86
             596.66,447.70 574.32,463.64 554.00,482.07
             554.00,482.07 540.06,494.83 540.06,494.83
             538.48,496.40 536.10,498.24 537.17,500.74
             537.91,502.50 541.43,504.94 543.00,506.13
             543.00,506.13 558.00,517.58 558.00,517.58
             558.00,517.58 615.00,560.42 615.00,560.42
             615.00,560.42 676.00,606.37 676.00,606.37
             676.00,606.37 776.00,681.87 776.00,681.87
             776.00,681.87 825.00,718.87 825.00,718.87
             831.37,723.65 844.35,734.41 851.00,737.00
             851.00,737.00 857.21,708.00 857.21,708.00
             857.21,708.00 868.21,656.00 868.21,656.00
             868.21,656.00 901.21,500.00 901.21,500.00
             901.21,500.00 927.00,378.00 927.00,378.00
             927.00,378.00 934.42,343.00 934.42,343.00
             934.42,343.00 939.00,320.00 939.00,320.00
             919.24,320.06 876.42,327.51 856.00,331.60 Z
           M 1051.20,332.00
           C 1051.20,332.00 1055.80,355.00 1055.80,355.00
             1055.80,355.00 1073.00,440.00 1073.00,440.00
             1073.00,440.00 1115.00,649.00 1115.00,649.00
             1115.00,649.00 1128.40,715.00 1128.40,715.00
             1128.40,715.00 1135.00,749.00 1135.00,749.00
             1135.00,749.00 1159.00,732.15 1159.00,732.15
             1159.00,732.15 1205.00,698.15 1205.00,698.15
             1205.00,698.15 1353.00,588.88 1353.00,588.88
             1353.00,588.88 1420.00,539.42 1420.00,539.42
             1420.00,539.42 1443.00,522.42 1443.00,522.42
             1443.00,522.42 1458.00,510.00 1458.00,510.00
             1382.34,434.34 1283.82,375.45 1181.00,345.42
             1151.73,336.87 1122.14,330.10 1092.00,325.42
             1092.00,325.42 1050.00,320.00 1050.00,320.00
             1050.00,320.00 1051.20,332.00 1051.20,332.00 Z
           M 491.00,545.00
           C 473.94,564.76 457.54,585.30 443.00,607.00
             400.58,670.33 369.29,736.15 349.88,810.00
             343.83,833.03 338.74,856.44 335.27,880.00
             335.27,880.00 330.00,920.00 330.00,920.00
             330.00,920.00 331.00,921.00 331.00,921.00
             331.00,921.00 363.00,914.20 363.00,914.20
             363.00,914.20 411.00,904.60 411.00,904.60
             411.00,904.60 550.00,876.60 550.00,876.60
             550.00,876.60 684.00,849.60 684.00,849.60
             684.00,849.60 726.00,841.00 726.00,841.00
             726.00,841.00 747.00,837.00 747.00,837.00
             744.21,829.83 729.28,811.31 723.88,804.00
             723.88,804.00 677.37,741.00 677.37,741.00
             677.37,741.00 577.63,606.00 577.63,606.00
             577.63,606.00 540.63,556.00 540.63,556.00
             540.63,556.00 515.00,521.00 515.00,521.00
             508.30,524.17 496.35,538.80 491.00,545.00 Z
           M 1638.42,836.00
           C 1621.21,758.04 1588.61,681.42 1544.33,615.00
             1530.47,594.20 1515.55,574.09 1499.42,555.00
             1493.72,548.24 1483.51,534.55 1476.00,531.00
             1476.00,531.00 1457.37,556.00 1457.37,556.00
             1457.37,556.00 1418.88,607.00 1418.88,607.00
             1418.88,607.00 1309.63,752.00 1309.63,752.00
             1309.63,752.00 1265.13,811.00 1265.13,811.00
             1259.97,817.88 1246.69,834.09 1244.00,841.00
             1244.00,841.00 1291.00,850.79 1291.00,850.79
             1291.00,850.79 1375.00,868.58 1375.00,868.58
             1375.00,868.58 1530.00,901.21 1530.00,901.21
             1530.00,901.21 1652.00,927.00 1652.00,927.00
             1651.81,905.69 1643.25,857.86 1638.42,836.00 Z
           M 954.00,872.08
           C 926.34,881.60 902.42,902.49 889.89,929.00
             861.38,989.29 889.98,1062.19 954.00,1084.00
             962.97,1087.05 975.54,1089.89 985.00,1090.00
             1006.79,1090.25 1025.58,1087.35 1045.00,1076.69
             1111.50,1040.20 1123.73,946.25 1067.00,895.17
             1054.32,883.76 1040.24,876.05 1024.00,871.02
             1011.95,867.30 995.56,865.12 983.00,866.28
             972.23,867.83 964.62,868.42 954.00,872.08 Z
           M 332.58,1062.00
           C 336.03,1087.24 339.94,1112.25 346.13,1137.00
             367.59,1222.89 403.90,1303.92 457.13,1375.00
             457.13,1375.00 491.73,1418.00 491.73,1418.00
             497.63,1424.88 508.01,1436.99 515.00,1442.00
             515.00,1442.00 541.37,1407.00 541.37,1407.00
             541.37,1407.00 581.37,1354.00 581.37,1354.00
             581.37,1354.00 680.87,1222.00 680.87,1222.00
             680.87,1222.00 732.87,1153.00 732.87,1153.00
             738.33,1145.73 754.28,1125.99 757.00,1119.00
             757.00,1119.00 725.00,1112.65 725.00,1112.65
             725.00,1112.65 685.00,1104.21 685.00,1104.21
             685.00,1104.21 549.00,1075.42 549.00,1075.42
             549.00,1075.42 406.00,1045.21 406.00,1045.21
             406.00,1045.21 331.00,1029.00 331.00,1029.00
             328.78,1034.61 331.63,1055.11 332.58,1062.00 Z
           M 1605.00,1044.80
           C 1605.00,1044.80 1517.00,1062.58 1517.00,1062.58
             1517.00,1062.58 1448.00,1076.40 1448.00,1076.40
             1448.00,1076.40 1339.00,1098.40 1339.00,1098.40
             1339.00,1098.40 1267.00,1113.00 1267.00,1113.00
             1267.00,1113.00 1231.00,1120.00 1231.00,1120.00
             1231.00,1120.00 1254.13,1153.00 1254.13,1153.00
             1254.13,1153.00 1300.85,1216.00 1300.85,1216.00
             1300.85,1216.00 1424.88,1384.00 1424.88,1384.00
             1424.88,1384.00 1467.00,1441.00 1467.00,1441.00
             1474.02,1437.68 1485.61,1423.41 1491.13,1417.00
             1508.72,1396.58 1525.37,1375.44 1540.33,1353.00
             1589.48,1279.29 1620.33,1207.45 1639.42,1121.00
             1644.26,1099.12 1650.99,1057.93 1652.00,1036.00
             1652.00,1036.00 1605.00,1044.80 1605.00,1044.80 Z
           M 1126.80,1238.00
           C 1126.80,1238.00 1121.58,1263.00 1121.58,1263.00
             1121.58,1263.00 1103.20,1350.00 1103.20,1350.00
             1103.20,1350.00 1061.79,1546.00 1061.79,1546.00
             1061.79,1546.00 1048.00,1611.00 1048.00,1611.00
             1048.00,1611.00 1042.00,1642.00 1042.00,1642.00
             1064.90,1642.00 1108.94,1634.52 1132.00,1629.42
             1216.13,1610.84 1289.27,1579.49 1361.00,1531.67
             1382.95,1517.03 1403.99,1500.76 1424.00,1483.58
             1429.79,1478.61 1443.97,1467.77 1446.00,1461.00
             1446.00,1461.00 1413.00,1436.37 1413.00,1436.37
             1413.00,1436.37 1350.00,1388.88 1350.00,1388.88
             1350.00,1388.88 1218.00,1289.63 1218.00,1289.63
             1218.00,1289.63 1155.00,1242.13 1155.00,1242.13
             1155.00,1242.13 1131.00,1224.00 1131.00,1224.00
             1131.00,1224.00 1126.80,1238.00 1126.80,1238.00 Z
           M 825.00,1251.63
           C 825.00,1251.63 777.00,1287.12 777.00,1287.12
             777.00,1287.12 677.00,1360.88 677.00,1360.88
             677.00,1360.88 613.00,1408.29 613.00,1408.29
             613.00,1408.29 557.00,1449.63 557.00,1449.63
             557.00,1449.63 543.02,1459.90 543.02,1459.90
             541.49,1461.13 539.20,1462.85 539.20,1465.03
             539.20,1467.57 542.28,1469.90 544.00,1471.42
             544.00,1471.42 557.00,1482.95 557.00,1482.95
             576.24,1500.03 597.08,1514.96 618.00,1529.86
             618.00,1529.86 662.00,1557.28 662.00,1557.28
             718.67,1589.49 775.62,1611.86 839.00,1626.88
             864.20,1632.86 908.59,1640.83 934.00,1642.00
             934.00,1642.00 925.80,1599.00 925.80,1599.00
             925.80,1599.00 908.80,1515.00 908.80,1515.00
             908.80,1515.00 872.00,1332.00 872.00,1332.00
             872.00,1332.00 852.00,1233.00 852.00,1233.00
             844.68,1235.85 831.83,1246.52 825.00,1251.63 Z" />
</svg>
