<svg xmlns="http://www.w3.org/2000/svg"
     width="9.12547in" height="13.3132in"
     viewBox="0 0 1314 1917">
  <path id="Selection"
        fill="none" stroke="black" stroke-width="1"
        d="M 576.00,134.00
           C 576.02,119.62 579.63,105.55 590.09,95.09
             609.56,75.62 644.06,77.05 661.10,99.01
             673.35,114.80 672.00,129.33 672.00,148.00
             672.00,148.00 672.00,217.00 672.00,217.00
             679.99,217.37 693.20,221.40 701.00,224.00
             719.13,230.04 734.54,236.52 751.00,246.40
             830.67,294.20 875.08,375.62 874.00,468.00
             874.00,468.00 872.96,478.00 872.96,478.00
             872.96,478.00 872.96,486.00 872.96,486.00
             869.38,522.20 857.25,558.84 838.55,590.00
             830.70,603.09 820.78,616.53 810.71,628.00
             807.86,631.25 798.22,639.29 798.19,643.17
             798.19,643.17 802.86,660.00 802.86,660.00
             802.86,660.00 813.58,697.00 813.58,697.00
             813.58,697.00 848.28,817.00 848.28,817.00
             848.28,817.00 868.42,887.00 868.42,887.00
             868.42,887.00 936.42,1122.00 936.42,1122.00
             936.42,1122.00 967.42,1229.00 967.42,1229.00
             967.42,1229.00 981.00,1278.00 981.00,1278.00
             981.00,1278.00 1201.00,1278.00 1201.00,1278.00
             1224.31,1278.04 1244.60,1288.36 1251.56,1312.00
             1253.28,1317.84 1253.07,1322.03 1253.00,1328.00
             1252.77,1347.38 1239.23,1364.28 1221.00,1370.25
             1215.20,1372.15 1207.11,1372.99 1201.00,1373.00
             1201.00,1373.00 1009.00,1373.00 1009.00,1373.00
             1009.00,1373.00 1029.42,1442.00 1029.42,1442.00
             1029.42,1442.00 1066.71,1571.00 1066.71,1571.00
             1066.71,1571.00 1084.14,1631.00 1084.14,1631.00
             1086.34,1638.73 1091.36,1653.56 1090.91,1661.00
             1090.64,1665.43 1088.84,1671.16 1086.64,1675.00
             1084.98,1677.89 1081.95,1680.86 1081.40,1684.00
             1081.40,1684.00 1081.97,1692.00 1081.97,1692.00
             1081.97,1692.00 1084.17,1718.00 1084.17,1718.00
             1084.17,1718.00 1094.17,1827.00 1094.17,1827.00
             1094.17,1827.00 1099.00,1882.00 1099.00,1882.00
             1099.00,1882.00 1056.00,1894.00 1056.00,1894.00
             1056.00,1894.00 1043.31,1867.00 1043.31,1867.00
             1043.31,1867.00 1015.26,1809.00 1015.26,1809.00
             1015.26,1809.00 986.78,1750.00 986.78,1750.00
             986.78,1750.00 970.79,1717.22 970.79,1717.22
             968.11,1713.44 964.27,1714.00 959.00,1711.10
             953.55,1708.09 949.44,1703.55 946.66,1698.00
             944.44,1693.57 942.08,1684.14 940.58,1679.00
             940.58,1679.00 928.98,1639.00 928.98,1639.00
             928.98,1639.00 907.58,1565.00 907.58,1565.00
             907.58,1565.00 888.14,1498.00 888.14,1498.00
             888.14,1498.00 860.29,1402.00 860.29,1402.00
             860.29,1402.00 854.42,1382.00 854.42,1382.00
             853.67,1379.43 852.95,1375.59 850.58,1374.02
             848.71,1372.78 845.21,1373.00 843.00,1373.00
             843.00,1373.00 674.00,1373.00 674.00,1373.00
             674.00,1386.47 675.82,1410.55 669.68,1422.00
             666.92,1427.13 663.10,1431.56 658.00,1434.47
             648.59,1439.85 629.03,1440.37 619.00,1436.53
             612.91,1434.20 607.74,1430.45 604.10,1425.00
             595.52,1412.14 598.00,1388.33 598.00,1373.00
             598.00,1373.00 392.00,1373.00 392.00,1373.00
             392.00,1373.00 378.72,1421.00 378.72,1421.00
             378.72,1421.00 354.42,1505.00 354.42,1505.00
             354.42,1505.00 316.42,1636.00 316.42,1636.00
             316.42,1636.00 305.14,1675.00 305.14,1675.00
             305.14,1675.00 298.48,1697.00 298.48,1697.00
             296.06,1702.30 290.99,1707.69 286.00,1710.65
             278.81,1714.91 276.20,1712.80 272.26,1720.02
             272.26,1720.02 259.69,1746.00 259.69,1746.00
             259.69,1746.00 245.22,1776.00 245.22,1776.00
             245.22,1776.00 207.26,1854.00 207.26,1854.00
             207.26,1854.00 188.00,1894.00 188.00,1894.00
             188.00,1894.00 145.00,1882.00 145.00,1882.00
             145.00,1882.00 153.83,1789.00 153.83,1789.00
             153.83,1789.00 159.17,1728.00 159.17,1728.00
             159.17,1728.00 162.91,1690.00 162.91,1690.00
             163.75,1678.51 160.71,1682.08 156.46,1672.00
             154.01,1666.19 153.30,1659.23 154.32,1653.00
             154.32,1653.00 161.29,1628.00 161.29,1628.00
             161.29,1628.00 175.58,1579.00 175.58,1579.00
             175.58,1579.00 215.42,1441.00 215.42,1441.00
             215.42,1441.00 228.42,1396.00 228.42,1396.00
             228.42,1396.00 235.00,1373.00 235.00,1373.00
             235.00,1373.00 72.00,1373.00 72.00,1373.00
             56.73,1372.98 42.94,1369.39 32.09,1357.99
             10.75,1335.55 16.27,1298.32 44.00,1283.78
             52.58,1279.29 62.40,1278.01 72.00,1278.00
             72.00,1278.00 254.00,1278.00 254.00,1278.00
             256.21,1278.00 259.71,1278.22 261.58,1276.98
             264.06,1275.33 264.92,1270.74 265.71,1268.00
             265.71,1268.00 272.66,1244.00 272.66,1244.00
             272.66,1244.00 284.42,1203.00 284.42,1203.00
             284.42,1203.00 305.00,1132.00 305.00,1132.00
             305.00,1132.00 403.71,791.00 403.71,791.00
             403.71,791.00 434.14,686.00 434.14,686.00
             434.14,686.00 443.14,655.00 443.14,655.00
             443.14,655.00 446.83,641.28 446.83,641.28
             446.82,637.89 441.52,633.54 439.28,631.00
             439.28,631.00 420.71,608.00 420.71,608.00
             403.05,583.29 389.64,555.39 381.88,526.00
             374.37,497.51 373.66,477.04 374.00,448.00
             374.14,436.46 377.79,414.41 380.63,403.00
             396.55,339.01 434.91,285.08 491.00,249.95
             509.40,238.42 526.48,230.84 547.00,224.00
             554.80,221.40 568.01,217.37 576.00,217.00
             576.00,217.00 576.00,134.00 576.00,134.00 Z
           M 523.00,343.29
           C 508.93,355.51 496.21,370.58 487.31,387.00
             455.99,444.78 463.92,515.54 507.29,565.00
             520.68,580.28 536.88,592.21 555.00,601.25
             571.66,609.56 596.32,616.78 615.00,617.00
             615.00,617.00 631.00,617.00 631.00,617.00
             667.32,616.94 708.59,597.38 733.99,571.99
             790.83,515.14 794.56,420.75 741.71,360.00
             722.32,337.71 699.84,323.28 672.00,314.00
             672.00,314.00 672.00,359.00 672.00,359.00
             672.00,377.19 672.76,392.35 659.82,407.00
             638.44,431.21 603.62,429.30 584.79,403.00
             577.92,393.41 576.02,381.54 576.00,370.00
             576.00,370.00 576.00,314.00 576.00,314.00
             556.40,320.53 538.70,329.65 523.00,343.29 Z
           M 628.00,712.00
           C 628.00,712.00 598.00,710.09 598.00,710.09
             598.00,710.09 585.56,710.09 585.56,710.09
             585.56,710.09 581.58,720.00 581.58,720.00
             581.58,720.00 574.34,745.00 574.34,745.00
             574.34,745.00 564.58,779.00 564.58,779.00
             564.58,779.00 544.58,848.00 544.58,848.00
             544.58,848.00 498.42,1007.00 498.42,1007.00
             498.42,1007.00 420.00,1278.00 420.00,1278.00
             420.00,1278.00 598.00,1278.00 598.00,1278.00
             598.00,1262.78 595.57,1239.83 604.10,1227.00
             618.15,1205.89 656.82,1206.85 669.47,1229.00
             675.82,1240.11 674.00,1264.75 674.00,1278.00
             674.00,1278.00 824.00,1278.00 824.00,1278.00
             824.00,1278.00 809.42,1226.00 809.42,1226.00
             809.42,1226.00 778.42,1119.00 778.42,1119.00
             778.42,1119.00 703.58,860.00 703.58,860.00
             703.58,860.00 674.58,760.00 674.58,760.00
             674.58,760.00 660.00,709.00 660.00,709.00
             660.00,709.00 628.00,712.00 628.00,712.00 Z" />
</svg>
